<?xml version="1.0" encoding="UTF-8"?>
<!DOCTYPE svg  PUBLIC '-//W3C//DTD SVG 20010904//EN'  'http://www.w3.org/TR/2001/REC-SVG-20010904/DTD/svg10.dtd'>
<svg width="180pt" height="59pt" version="1.0" viewBox="0 0 180 59" xmlns="http://www.w3.org/2000/svg">
<g transform="translate(0 59) scale(.1 -.1)">
<path d="m436 478c-7-13-19-53-26-90s-16-66-20-63c-8 5-30 93-30 121 0 8 6 14 13 13 26-3 37 2 37 16 0 12-15 15-75 15-54 0-75-4-75-13 0-7 10-17 22-22 22-10 31-32 47-118 8-48 8-49-24-64-50-24-140-151-121-171 4-4 103-7 219-8 117 0 290-5 385-12 95-6 179-9 185-7 7 3 95 9 196 14 161 9 189 8 218-6 40-19 78-20 98-3 33 27 87 122 90 160l4 40h-44c-41 0-47 3-80 48l-37 47 44 38c23 21 55 40 71 44 15 3 27 11 27 18 0 9-21 14-70 17-81 3-90 2-90-18 0-13 11-18 35-15 6 1-12-20-40-45l-50-47-3 32c-5 44 3 61 28 61 11 0 20 7 20 15 0 12-15 15-74 15-72 0-100-10-74-27 7-4 20-8 28-8 12 0 16-18 18-87l3-88h-41c-33 0-40 3-40 20 0 24-28 27-45 4-9-13-27-17-75-16-34 1-65 3-67 6-3 3-5 28-5 57 0 65 25 103 71 107 41 4 69-19 73-62 2-19 8-31 18-31 12 0 16 15 18 65l3 66-72 2c-112 3-160-39-165-147l-3-56h-37-38l-33 90c-40 106-52 122-82 106-11-7-21-16-21-20 0-5-14-46-31-90-34-89-30-87-102-59-18 7-26 16-23 27 3 9 10 36 16 60 8 28 18 45 31 48 10 3 19 11 19 18 0 9-20 14-65 17-75 4-85 2-85-18 0-8 10-14 24-14s27-3 29-7c7-14-18-116-29-120-6-2-16 25-23 67-17 94-46 124-75 78zm374-120c0-13-8-18-25-18-29 0-29 0-13 53l12 40 13-29c6-16 12-37 13-46zm-338-30c-2-5-7-8-13-8-11 0-12 41-2 67 6 14 9 10 13-17 4-19 4-38 2-42zm939-26 21-32h-46c-51 0-61 17-29 52 21 23 29 20 54-20zm-598-9c-13-2-33-2-45 0-13 2-3 4 22 4s35-2 23-4z"/>
</g>
</svg>
